<?xml version="1.0" encoding="utf-8"?>
<!-- Svg Vector Icons : http://www.onlinewebfonts.com/icon -->
<!DOCTYPE svg PUBLIC "-//W3C//DTD SVG 1.1//EN" "http://www.w3.org/Graphics/SVG/1.1/DTD/svg11.dtd">
<svg version="1.1" xmlns="http://www.w3.org/2000/svg" xmlns:xlink="http://www.w3.org/1999/xlink" x="0px" y="0px" viewBox="0 0 1000 1000" enable-background="new 0 0 1000 1000" xml:space="preserve">
<metadata> Svg Vector Icons : http://www.onlinewebfonts.com/icon </metadata>
<g><g transform="translate(0.000000,511.000000) scale(0.100000,-0.100000)"><path d="M4655.8,5009.2c-716.7-74.3-1228-214.1-1791.8-489.5C421.1,3324.5-592.8,385.6,600.3-2046.4c253.5-515.7,563.8-941.8,987.7-1359.1c777.9-760.4,1706.5-1206.2,2838.4-1363.5c281.9-39.3,946.1-32.8,1256.4,13.1C7629.7-4474,9207.3-3095.2,9736.1-1216.1C9871.6-731,9900-510.3,9900,105.9c0,624.9-30.6,850-174.8,1352.6c-533.2,1855.1-2095.5,3223-4009.6,3509.2C5492.7,5000.5,4830.6,5026.7,4655.8,5009.2z M5390,4213.9c699.2-72.1,1332.9-299.4,1909.7-688.3c133.3-89.6,260-179.2,284.1-196.7c41.5-32.8-87.4-163.9-2858.1-2934.6L1823.9-2505.3l-54.6,65.5c-115.8,139.9-336.5,491.7-456.7,729.8C659.3-403.2,764.2,1172.2,1583.6,2391.5c410.8,614,917.7,1062,1575.4,1391.9C3871.4,4141.8,4634,4290.4,5390,4213.9z M8372.6,2483.3c325.6-463.2,579.1-1053.2,686.1-1601.7c67.7-336.5,83-972.4,35-1322C8842.4-2232.1,7492-3634.9,5706.8-3956.2c-69.9-13.1-260-35-421.7-48.1c-679.6-52.5-1405,85.2-2049.6,393.3c-246.9,120.2-753.9,437-819.4,515.7c-26.2,32.8,295,360.5,2864.7,2930.2c1590.7,1590.7,2899.6,2893,2906.1,2893C8195.6,2728,8278.7,2618.8,8372.6,2483.3z"/><path d="M3550.2,3326.7c-144.2-43.7-299.4-157.3-384.6-279.7c-142-207.6-137.7-135.5-137.7-2185.1V-997.5L3235.5-790l207.6,207.6V656.6v1241.1h1241.1h1241.1l96.1,98.3l96.2,98.3l-107.1,2.2c-61.2,0-662.1,2.2-1339.4,2.2H3440.9l6.6,336.5l6.6,334.3l74.3,76.5c48.1,50.3,107.1,83,174.8,98.3c63.4,15.3,555,21.9,1367.9,17.5l1267.4-4.4l85.2-52.4c87.4-54.6,163.9-187.9,166.1-286.2c0-48.1,17.5-35,163.9,109.3c89.6,89.6,163.9,177,163.9,196.7c0,17.5-37.1,83-83,142c-85.2,113.6-264.4,236-397.7,273.1c-45.9,13.1-611.8,21.9-1431.2,19.7C3897.6,3359.5,3633.2,3352.9,3550.2,3326.7z"/><path d="M4614.3,2607.8c-50.3-26.2-67.7-91.8-35-142c15.3-26.2,91.8-35,402.1-39.3c249.1-4.4,397.7,2.2,426.1,17.5c52.4,28.4,63.4,146.4,15.3,166.1C5363.8,2631.9,4660.2,2629.7,4614.3,2607.8z"/><path d="M6781.9,1030.2l-192.3-192.3l-4.4-1201.8l-6.6-1201.8l-1204-6.6l-1201.8-4.4l-96.1-98.3l-96.1-98.3h1304.5h1304.5v-338.7c0-375.8-15.3-437-128.9-546.3l-69.9-65.5l-1359.1-6.6c-1326.3-4.4-1361.3-4.4-1431.2,39.3c-91.8,56.8-157.3,166.1-157.3,268.8c0,43.7-6.5,80.8-17.5,80.8c-28.4,0-332.1-316.8-332.1-345.2c0-50.3,104.9-192.3,209.8-286.2c69.9-61.2,148.6-104.9,249.1-135.5c139.8-41.5,194.5-43.7,1507.7-37.1l1365.7,6.6l124.6,59c150.8,69.9,295,209.8,367.1,356.2l54.6,109.2l6.6,1474.9c2.2,810.7,2.2,1673.8,0,1918.5l-6.6,441.4L6781.9,1030.2z"/><path d="M4979.2-2007.1c-87.4-17.5-159.5-113.6-159.5-214.1c0-170.4,150.8-273.1,308.1-207.6c118,50.3,166.1,220.7,94,325.6c-30.6,41.5-166.1,120.2-187.9,109.3C5029.5-1996.1,5005.4-2002.7,4979.2-2007.1z"/></g></g>
</svg>