<svg id="Layer_1" height="512" viewBox="0 0 128 128" width="512" xmlns="http://www.w3.org/2000/svg" data-name="Layer 1"><path d="m77.953 58.381a5.329 5.329 0 0 0 -.511-6.631 5.3 5.3 0 0 0 0-7.25 5.355 5.355 0 0 0 -3.943-9h-3.749v-18.5a1.75 1.75 0 0 0 -3.5 0v18.5h-4.5v-18.5a1.75 1.75 0 0 0 -3.5 0v18.5h-3.75a5.355 5.355 0 0 0 -3.943 9 5.3 5.3 0 0 0 0 7.25 5.329 5.329 0 0 0 -.511 6.631c-5.966 9.624-9.633 23.248-9.633 30.783a23.586 23.586 0 0 0 47.172 0c.001-7.535-3.665-21.159-9.632-30.783zm-10.682 2.369a38.046 38.046 0 0 1 4.582 7.626c3.676 7.822 5.6 16.379 5.6 20.788a13.452 13.452 0 0 1 -26.9 0c0-4.409 1.923-12.966 5.6-20.788a37.32 37.32 0 0 1 4.577-7.626zm-12.771-3.5a1.875 1.875 0 0 1 0-3.75h19a1.875 1.875 0 0 1 0 3.75zm-1.875-9.125a1.877 1.877 0 0 1 1.875-1.875h19a1.875 1.875 0 0 1 0 3.75h-19a1.877 1.877 0 0 1 -1.875-1.875zm1.875-9.125h19a1.875 1.875 0 0 1 0 3.75h-19a1.875 1.875 0 0 1 0-3.75zm9.5 70.25a20.109 20.109 0 0 1 -20.086-20.086c0-7.01 3.565-19.86 8.953-28.695a5.3 5.3 0 0 0 1.633.281h1.888a47.226 47.226 0 0 0 -3.409 6.138c-3.894 8.287-5.932 17.479-5.932 22.276a16.952 16.952 0 0 0 33.9 0c0-4.8-2.038-13.989-5.932-22.276a47.149 47.149 0 0 0 -3.413-6.138h1.898a5.3 5.3 0 0 0 1.633-.281c5.388 8.835 8.953 21.685 8.953 28.695a20.109 20.109 0 0 1 -20.086 20.086z"/></svg>