<svg id="Layer_1" height="512" viewBox="0 0 128 128" width="512" xmlns="http://www.w3.org/2000/svg" data-name="Layer 1"><path d="m60 17h8v20.25h-8z" fill="#a24f41"/><path d="m64 49.5c-12.06 0-21.836 27.6-21.836 39.664a21.836 21.836 0 0 0 43.672 0c0-12.064-9.776-39.664-21.836-39.664zm0 54.866a15.219 15.219 0 0 1 -15.2-15.2c0-4.6 1.981-13.478 5.766-21.533 3.964-8.436 7.815-11.5 9.437-11.5s5.472 3.062 9.437 11.5c3.782 8.053 5.76 16.927 5.76 21.531a15.219 15.219 0 0 1 -15.2 15.202z" fill="#a24f41"/><rect fill="#fedd55" height="7.25" rx="3.625" width="26.25" x="50.875" y="37.25"/><rect fill="#a24f41" height="7.25" rx="3.625" width="26.25" x="50.875" y="44.5"/><rect fill="#fedd55" height="7.25" rx="3.625" width="26.25" x="50.875" y="51.75"/><g fill="#222"><path d="m76.562 104.838q-.248.2-.5.389a1.75 1.75 0 0 0 2.1 2.8q.292-.22.577-.447a1.75 1.75 0 0 0 -2.181-2.738z"/><path d="m77.953 58.381a5.329 5.329 0 0 0 -.511-6.631 5.3 5.3 0 0 0 0-7.25 5.355 5.355 0 0 0 -3.943-9h-3.749v-18.5a1.75 1.75 0 0 0 -3.5 0v18.5h-11.75a5.355 5.355 0 0 0 -3.943 9 5.3 5.3 0 0 0 0 7.25 5.329 5.329 0 0 0 -.511 6.631c-5.966 9.624-9.633 23.248-9.633 30.783a23.6 23.6 0 0 0 31.417 22.254 1.75 1.75 0 1 0 -1.161-3.3 20.1 20.1 0 0 1 -26.755-18.954c0-7.01 3.565-19.86 8.953-28.695a5.3 5.3 0 0 0 1.633.281h1.888a47.226 47.226 0 0 0 -3.409 6.138c-3.894 8.287-5.932 17.479-5.932 22.276a16.952 16.952 0 0 0 33.9 0c0-4.8-2.038-13.989-5.932-22.276a1.75 1.75 0 0 0 -3.168 1.488c3.676 7.822 5.6 16.379 5.6 20.788a13.452 13.452 0 0 1 -26.9 0c0-4.409 1.923-12.966 5.6-20.788a37.32 37.32 0 0 1 4.577-7.626h12.776a5.3 5.3 0 0 0 1.633-.281c5.388 8.835 8.953 21.685 8.953 28.695a19.961 19.961 0 0 1 -3.6 11.474 1.75 1.75 0 0 0 2.871 2 23.443 23.443 0 0 0 4.227-13.476c.002-7.533-3.664-21.157-9.631-30.781zm-23.453-19.381h19a1.875 1.875 0 0 1 0 3.75h-6.5a1.75 1.75 0 0 0 0 3.5h6.5a1.875 1.875 0 0 1 0 3.75h-19a1.875 1.875 0 0 1 0-3.75 1.75 1.75 0 0 0 0-3.5 1.875 1.875 0 0 1 0-3.75zm0 18.25a1.875 1.875 0 0 1 0-3.75h19a1.875 1.875 0 0 1 0 3.75z"/><path d="m60 46.25h.75a1.75 1.75 0 0 0 0-3.5h-.75a1.75 1.75 0 0 0 0 3.5z"/><path d="m60 32.25a1.75 1.75 0 0 0 1.75-1.75v-13.5a1.75 1.75 0 0 0 -3.5 0v13.5a1.75 1.75 0 0 0 1.75 1.75z"/></g></svg>